# xmcd
#
# Track frame offsets:
#	150
#	12682
#	21420
#	29782
#	37910
#	50605
#	59600
#	71952
#	80547
#	93355
#	106770
#	122015
#	139710
#	150155
#	162570
#	176412
#	189410
#	203567
#	214750
#	224332
#	237287
#	254527
#	265650
#	276685
#
# Disc length: 3829 seconds
#
# Revision: 0
# Processed by: cddbd v1.4PL0 Copyright (c) Steve Scherf et al.
# Submitted via: audiograbber 1.80
#
DISCID=660ef318
DTITLE=Jim Croce - 50th Anniversary Edition - Disk 1
DYEAR=1900
DGENRE=
TTITLE0=Spin, Spin, Spin
TTITLE1=Vespers
TTITLE2=Big Wheel
TTITLE3=Cigarettes, Whiskey And Wild, Wild Women
TTITLE4=(And) I Remember Her
TTITLE5=Cotton Mouth River
TTITLE6=More Than That Tomorrow
TTITLE7=The Migrant Worker
TTITLE8=Child Of Midnight
TTITLE9=Stone Walls
TTITLE10=King's Song
TTITLE11=Mississippi Lady
TTITLE12=Which Way Are You Goin'
TTITLE13=Rapid Roy (The Stockcar Boy)
TTITLE14=You Don't Mess Around With Jim
TTITLE15=Tomorrow's Gonna Be A Brighter Day
TTITLE16=New York's Not My Home
TTITLE17=Hard Time Losin' Man
TTITLE18=Photographs And Memories
TTITLE19=Walkin' Back To Georgia
TTITLE20=Operator (That's Not The Way It Feels)
TTITLE21=Time In A Bottle
TTITLE22=Box # 10
TTITLE23=A Long Time Ago
EXTD=
EXTT0=
EXTT1=
EXTT2=
EXTT3=
EXTT4=
EXTT5=
EXTT6=
EXTT7=
EXTT8=
EXTT9=
EXTT10=
EXTT11=
EXTT12=
EXTT13=
EXTT14=
EXTT15=
EXTT16=
EXTT17=
EXTT18=
EXTT19=
EXTT20=
EXTT21=
EXTT22=
EXTT23=
PLAYORDER=
